<svg width="416" height="416" fill="none" xmlns="http://www.w3.org/2000/svg"><path d="M208 0C93.128 0 0 93.128 0 208c0 98.216 68.096 180.48 159.64 202.288-4.736-1.128-9.432-2.392-14.04-3.832V358.8s-7.8 2.6-18.2 2.6c-29.096 0-41.184-25.96-44.2-39-1.832-7.944-6.616-15.472-11.752-20.072-6.136-5.472-9.008-5.488-9.048-7.36-.08-3.928 5.264-3.768 7.8-3.768 13 0 22.856 13.832 27.432 20.984C108.968 329.84 121.136 332.8 127.4 332.8c7.8 0 14.536-1.168 19.176-3.408 2.144-15.104 8.864-28.56 19.824-38.192-48.776-9.752-83.2-37.728-83.2-83.2 0-23.424 9.4-44.952 25.064-62.336-1.6-4.536-4.264-13.712-4.264-28.664 0-9.88.688-22.008 5.2-33.8 0 0 29.664.208 57.64 26.704C179.752 106.144 193.568 104 208 104c14.432 0 28.248 2.144 41.16 5.904C277.136 83.408 306.8 83.2 306.8 83.2c4.536 11.792 5.2 23.92 5.2 33.8 0 16.12-2.144 25.52-3.456 29.576C323.728 163.8 332.8 184.992 332.8 208c0 45.472-34.424 73.448-83.2 83.2 13.024 11.44 20.8 28.104 20.8 46.8v68.456c-4.608 1.448-9.296 2.704-14.04 3.832C347.904 388.48 416 306.216 416 208 416 93.128 322.872 0 208 0Zm14.504 415.44c-4.792.336-9.624.56-14.504.56 4.88 0 9.704-.232 14.504-.56ZM208 416c-4.88 0-9.712-.224-14.504-.56 4.8.328 9.624.56 14.504.56Zm-17.696-.8a207.427 207.427 0 0 1-28.592-4.432 208.84 208.84 0 0 0 28.592 4.432Z" fill="#fff"/></svg>