<svg width="416" height="416" viewBox="0 0 416 416" fill="none" xmlns="http://www.w3.org/2000/svg">
<path d="M208 0C93.128 0 0 93.128 0 208C0 306.216 68.096 388.48 159.64 410.288C154.904 409.16 150.208 407.896 145.6 406.456V358.8C145.6 358.8 137.8 361.4 127.4 361.4C98.304 361.4 86.216 335.44 83.2 322.4C81.368 314.456 76.584 306.928 71.448 302.328C65.312 296.856 62.44 296.84 62.4 294.968C62.32 291.04 67.664 291.2 70.2 291.2C83.2 291.2 93.056 305.032 97.632 312.184C108.968 329.84 121.136 332.8 127.4 332.8C135.2 332.8 141.936 331.632 146.576 329.392C148.72 314.288 155.44 300.832 166.4 291.2C117.624 281.448 83.2 253.472 83.2 208C83.2 184.576 92.6 163.048 108.264 145.664C106.664 141.128 104 131.952 104 117C104 107.12 104.688 94.992 109.2 83.2C109.2 83.2 138.864 83.408 166.84 109.904C179.752 106.144 193.568 104 208 104C222.432 104 236.248 106.144 249.16 109.904C277.136 83.408 306.8 83.2 306.8 83.2C311.336 94.992 312 107.12 312 117C312 133.12 309.856 142.52 308.544 146.576C323.728 163.8 332.8 184.992 332.8 208C332.8 253.472 298.376 281.448 249.6 291.2C262.624 302.64 270.4 319.304 270.4 338V406.456C265.792 407.904 261.104 409.16 256.36 410.288C347.904 388.48 416 306.216 416 208C416 93.128 322.872 0 208 0ZM222.504 415.44C217.712 415.776 212.88 416 208 416C212.88 416 217.704 415.768 222.504 415.44ZM208 416C203.12 416 198.288 415.776 193.496 415.44C198.296 415.768 203.12 416 208 416ZM190.304 415.2C180.568 414.376 171.016 412.888 161.712 410.768C171.024 412.88 180.568 414.376 190.304 415.2Z" fill="white"/>
</svg>
